# xmcd
#
# Track frame offsets: 
#        150
#        16291
#        35640
#        48929
#        62753
#        77406
#        91722
#        104824
#        122876
#        135771
#
# Disc length: 2017 seconds
#
# Revision: 0
# Processed by: cddbd v1.5.2PL0 Copyright (c) Steve Scherf et al.
# Submitted via: ExactAudioCopyFreeDBPlugin 1.0
#
DISCID=7707df0a
DTITLE=Connie Lefebvre - Simple Life
DYEAR=2010
DGENRE=Country
TTITLE0=This Is Life
TTITLE1=Coyote Song
TTITLE2=Destiny
TTITLE3=Beautiful Day
TTITLE4=Never Be A Goodbye
TTITLE5=Wait 5 Minutes
TTITLE6=Safety Man
TTITLE7=Where Do Grandmas Go
TTITLE8=Biggest Wagon Wheel
TTITLE9=All Things Gone
EXTD=
EXTT0=
EXTT1=
EXTT2=
EXTT3=
EXTT4=
EXTT5=
EXTT6=
EXTT7=
EXTT8=
EXTT9=
PLAYORDER=
